<svg xmlns="http://www.w3.org/2000/svg" viewBox="0 0 410 404">
  <path
    d="M399.641 59.524 228.764 393.338c-4.09 8.004-15.414 8.06-19.581.097L10.415 59.525c-4.51-7.417 1.096-16.567 9.571-15.455l183.898 24.89a10.42 10.42 0 0 0 2.78 0l183.898-24.89c8.476-1.112 14.08 8.038 9.58 15.455Z"
    fill="#646CFF"
  />
  <path
    d="M292.965 3.656 154.833 30.723a5.828 5.828 0 0 0-4.717 5.245l-8.56 144.817a5.83 5.83 0 0 0 7.088 6.116l38.602-9.048a5.83 5.83 0 0 1 7.132 6.765l-11.31 55.41a5.83 5.83 0 0 0 8.566 6.254l72.697-42.916a5.83 5.83 0 0 0 2.844-6.025l-14.056-63.39a5.83 5.83 0 0 1 7.293-6.725l44.2 12.078a5.83 5.83 0 0 0 7.282-6.202L298.51 9.082a5.83 5.83 0 0 0-5.545-5.426Z"
    fill="#FFB400"
  />
</svg>
